# xmcd CD database file
#
# Track frame offsets:
#	150
#	19956
#	34511
#	48916
#	63922
#	78777
#	92882
#	105862
#	119442
#	134070
#	147899
#	160730
#	175135
#	189540
#	204546
#
# Disc length: 2923 seconds
#
# Revision: 1
# Processed by: cddbd v1.5.2PL0 Copyright (c) Steve Scherf et al.
# Submitted via: CDex 1.51
#
DISCID=c40b690f
DTITLE=Various Artist - Late Night Jazz
DYEAR=2008
DGENRE=Jazz
TTITLE0=Louis Armstrong - Long Long Journey
TTITLE1=Cootie Williams and his Orchestra -  Smooth Sailing
TTITLE2=Billie Holiday - Until the real time thing comes along
TTITLE3=Ella Fitzgerald - Sentimental Journey
TTITLE4=Benny Goodmann - Smoke get in your eyes
TTITLE5=Julie Lee with Tommy Douglass Orchestra - Lotus Blossom
TTITLE6=The Nat King Cole Trio - Dream a little Dream of me
TTITLE7=Luis Jordan - Don't let the Sun catch your cryin'
TTITLE8=Helen Humes and Buck Clayton's Orchestra - Blue and Sentimental
TTITLE9=Nat King Cole - (Get your Kicks on) Route 66
TTITLE10=Sarah Vaughan - What a Diffrence a Day Made
TTITLE11=Johnny Mercer - Surprise Party
TTITLE12=Frank Sinatra - Sweet Lorraine
TTITLE13=Eskine Hawkins - Tuxedo Junction
TTITLE14=Louis Jordan - Somebody done changed the Look on my Door
EXTD=YEAR: 2008
EXTT0=
EXTT1=
EXTT2=
EXTT3=
EXTT4=
EXTT5=
EXTT6=
EXTT7=
EXTT8=
EXTT9=
EXTT10=
EXTT11=
EXTT12=
EXTT13=
EXTT14=
PLAYORDER=
